<?xml version="1.0" encoding="UTF-8" standalone="no"?>
<svg xmlns="http://www.w3.org/2000/svg" xml:space="preserve" width="627.76898" height="550.45001" version="1.0" viewBox="0 0 627.769 550.45">
  <path fill="#f57900" d="M614.574 504.94 335.167 20.996c-4.379-7.584-12.471-12.258-21.229-12.258-8.759 0-16.851 4.674-21.23 12.258L13.303 504.94c-4.378 7.584-4.378 16.93 0 24.516 4.379 7.584 12.472 12.256 21.23 12.256h558.811c8.758 0 16.852-4.672 21.23-12.256 4.379-7.586 4.377-16.932 0-24.516z"/>
  <path fill="#fff" d="M93.977 482.877h439.925L313.938 101.892 93.977 482.877z"/>
  <path d="M291.873 343.36c1.203 11.488 3.209 20.044 6.018 25.664 2.808 5.623 7.823 8.43 15.043 8.43h2.006c7.221 0 12.236-2.807 15.045-8.43 2.809-5.62 4.814-14.176 6.018-25.664l6.42-88.753c1.203-17.293 1.805-29.707 1.805-37.243 0-10.251-2.908-18.251-8.725-23.995-5.529-5.458-13.388-8.589-21.566-8.589-8.178 0-16.036 3.131-21.563 8.589-5.816 5.744-8.726 13.744-8.726 23.995 0 7.536.602 19.95 1.805 37.243l6.42 88.753z"/>
  <circle cx="313.93799" cy="430.79401" r="30.747"/>
</svg>