<?xml version="1.0" encoding="utf-8"?>
<!-- Generator: Adobe Illustrator 15.0.0, SVG Export Plug-In . SVG Version: 6.00 Build 0)  -->
<!DOCTYPE svg PUBLIC "-//W3C//DTD SVG 1.1//EN" "http://www.w3.org/Graphics/SVG/1.1/DTD/svg11.dtd">
<svg version="1.1" id="Layer_1" xmlns="http://www.w3.org/2000/svg" xmlns:xlink="http://www.w3.org/1999/xlink" x="0px" y="0px"
	 width="15590.55px" height="15590.55px" viewBox="0 0 15590.55 15590.55" enable-background="new 0 0 15590.55 15590.55"
	 xml:space="preserve">
<path d="M15312.404,7795.271c0,4151.619-3365.523,7517.123-7517.123,7517.123c-4151.545,0-7517.134-3365.504-7517.134-7517.123
	c0-4151.535,3365.589-7517.115,7517.134-7517.115C11946.881,278.156,15312.404,3643.736,15312.404,7795.271z"/>
<path fill="#FFFFFF" d="M13087.749,7795.271c0,2922.934-2369.562,5292.486-5292.468,5292.486
	c-2922.926,0-5292.44-2369.553-5292.44-5292.486c0-2922.925,2369.515-5292.478,5292.44-5292.478
	C10718.188,2502.794,13087.749,4872.347,13087.749,7795.271z"/>
<g>
	<path d="M4320.441,9694.881l1889.988-1889.988L4310.566,5905.031l1593.912-1593.913L7804.342,6210.98l1899.844-1899.853
		l1593.942,1593.911L9398.234,7804.893l1889.998,1889.988L9694.33,11288.793L7804.342,9398.805l-1889.988,1889.988
		L4320.441,9694.881z"/>
</g>
</svg>
